<?xml version="1.0" encoding="UTF-8"?>
<svg xmlns="http://www.w3.org/2000/svg" viewBox="0 0 1200 630" width="1200" height="630">
  <defs>
    <linearGradient id="g42615" x1="88.3022221559489%" y1="17.86061951567303%" x2="11.697777844051103%" y2="82.13938048432698%">
      <stop offset="0%" stop-color="#D97706"/>
      <stop offset="100%" stop-color="#B45309"/>
    </linearGradient>
  </defs>
  <rect width="1200" height="630" fill="url(#g42615)"/>
  <polygon points="468.46856700256467,252.06005217507482 538.4685670025647,212.06005217507482 608.4685670025647,252.06005217507482 538.4685670025647,292.0600521750748" fill="rgba(255,255,255,0.08)" stroke="rgba(255,255,255,0.15)" stroke-width="2"/><line x1="598.4685670025647" y1="257.0600521750748" x2="598.4685670025647" y2="312.0600521750748" stroke="rgba(255,255,255,0.12)" stroke-width="2"/><path d="M 824.4581516366452 355.91465982608497 C 794.4581516366452 345.91465982608497 744.4581516366452 350.91465982608497 734.4581516366452 285.91465982608497 L 824.4581516366452 295.91465982608497 L 914.4581516366452 285.91465982608497 C 904.4581516366452 350.91465982608497 854.4581516366452 345.91465982608497 824.4581516366452 355.91465982608497 Z" fill="rgba(255,255,255,0.06)" stroke="rgba(255,255,255,0.12)" stroke-width="1.5"/><line x1="824.4581516366452" y1="355.91465982608497" x2="824.4581516366452" y2="295.91465982608497" stroke="rgba(255,255,255,0.12)" stroke-width="1.5"/><rect x="221.57629893627018" y="426.70083912089467" width="8" height="100" rx="1" fill="rgba(255,255,255,0.1)" transform="rotate(43.87108745984733 221.57629893627018 426.70083912089467)"/><circle cx="954.0448301355354" cy="162.47729405760765" r="30" fill="none" stroke="rgba(255,255,255,0.12)" stroke-width="2"/><line x1="944.0448301355354" y1="192.47729405760765" x2="964.0448301355354" y2="192.47729405760765" stroke="rgba(255,255,255,0.1)" stroke-width="2"/><line x1="946.0448301355354" y1="199.47729405760765" x2="962.0448301355354" y2="199.47729405760765" stroke="rgba(255,255,255,0.1)" stroke-width="2"/><circle cx="912.0591605314985" cy="85.69391956552863" r="3.797380816191435" fill="rgba(255,255,255,0.11543640045449138)"/><circle cx="709.3560108914971" cy="556.4926799177192" r="5.4712945176288486" fill="rgba(255,255,255,0.09268814878538251)"/><circle cx="779.8775156028569" cy="552.2219030791894" r="4.846986396238208" fill="rgba(255,255,255,0.06665240989997984)"/><circle cx="894.9467287398875" cy="543.3835835452192" r="2.218544383533299" fill="rgba(255,255,255,0.04086780712008476)"/><circle cx="1056.5492514753714" cy="303.0420849798247" r="5.2089779963716865" fill="rgba(255,255,255,0.08123473774641753)"/><circle cx="269.3243407411501" cy="131.87299781711772" r="2.876754096709192" fill="rgba(255,255,255,0.10500259708613158)"/><circle cx="697.1863275393844" cy="517.7246311912313" r="4.47389205917716" fill="rgba(255,255,255,0.05665612166747451)"/><circle cx="388.9642694965005" cy="350.15532181365415" r="4.4854588666930795" fill="rgba(255,255,255,0.11313896318897604)"/><circle cx="165.34696051385254" cy="538.6463885940611" r="3.6307145757600665" fill="rgba(255,255,255,0.062331963162869215)"/><circle cx="489.9150203447789" cy="232.01813242863864" r="4.198093277402222" fill="rgba(255,255,255,0.11531886156648397)"/><circle cx="868.1379846064374" cy="355.4606456751935" r="5.482702733948827" fill="rgba(255,255,255,0.10991858687251807)"/><circle cx="161.42668074462563" cy="403.56711821630597" r="5.616223664954305" fill="rgba(255,255,255,0.08637204948812724)"/><circle cx="774.5405451627448" cy="293.25084077194333" r="2.2114576241001487" fill="rgba(255,255,255,0.04792746951803565)"/><circle cx="967.8645413834602" cy="57.76922426884994" r="5.306187157519162" fill="rgba(255,255,255,0.059031825307756663)"/><circle cx="847.0513480482623" cy="321.9700212497264" r="5.7575559401884675" fill="rgba(255,255,255,0.06559980507940054)"/>
  <circle cx="1016.6634678840637" cy="242.98466649837792" r="1.8562988168559968" fill="rgba(255,255,255,0.07925757185555996)"/><circle cx="743.9388711936772" cy="18.137579506728798" r="2.643281975761056" fill="rgba(255,255,255,0.06164922271389514)"/><circle cx="582.5295648537576" cy="145.64717995701358" r="2.969148699194193" fill="rgba(255,255,255,0.048638376728631555)"/><circle cx="640.1123223826289" cy="370.05529838148504" r="1.312909892294556" fill="rgba(255,255,255,0.06764311503618956)"/><circle cx="120.05024682730436" cy="351.0570463654585" r="2.047508758492768" fill="rgba(255,255,255,0.05413034968776628)"/><circle cx="961.582687497139" cy="155.46898730797693" r="2.5452856477349997" fill="rgba(255,255,255,0.05846014094538987)"/><circle cx="202.92418766766787" cy="619.2552202194929" r="2.405430586542934" fill="rgba(255,255,255,0.05347669004229828)"/><circle cx="409.45387221872807" cy="68.09603845467791" r="1.5435539479367435" fill="rgba(255,255,255,0.040225213365629314)"/><circle cx="123.13634678721428" cy="398.91004629665986" r="2.6240948368795216" fill="rgba(255,255,255,0.07193213122198358)"/><circle cx="406.7356235347688" cy="551.8645116663538" r="1.972828253172338" fill="rgba(255,255,255,0.061842986471019684)"/><circle cx="906.8469453603029" cy="293.16581446677446" r="1.1648967112414539" fill="rgba(255,255,255,0.046796118463389574)"/><circle cx="441.0068931989372" cy="492.24037625128403" r="1.8977091303095222" fill="rgba(255,255,255,0.05544881221838295)"/><circle cx="642.2786897979677" cy="330.6778599182144" r="2.96700890827924" fill="rgba(255,255,255,0.039872396464925255)"/><circle cx="360.76643178239465" cy="290.13488500379026" r="2.49613816710189" fill="rgba(255,255,255,0.07164180892985314)"/><circle cx="1083.6659886874259" cy="139.13598767481744" r="1.6338379736989737" fill="rgba(255,255,255,0.06227983557153493)"/><circle cx="429.62850043550134" cy="416.09765293775126" r="2.6478414521552622" fill="rgba(255,255,255,0.07861517403041944)"/><circle cx="618.298699054867" cy="505.82840259186924" r="1.7592006116174161" fill="rgba(255,255,255,0.048114542216062546)"/><circle cx="146.3542970828712" cy="260.051469609607" r="2.7119396654888988" fill="rgba(255,255,255,0.05478797064395621)"/><circle cx="1132.196997385472" cy="432.29067005217075" r="2.0522833419963717" fill="rgba(255,255,255,0.07335097811417654)"/><circle cx="1082.6339470222592" cy="566.9841082720086" r="1.197575327474624" fill="rgba(255,255,255,0.03719810515874997)"/>
  <text x="600" y="335" font-family="system-ui, -apple-system, 'Segoe UI', sans-serif" font-size="68" font-weight="700" fill="rgba(0,0,0,0.15)" text-anchor="middle" letter-spacing="1">Thanaweya Amma</text>
  <text x="600" y="332" font-family="system-ui, -apple-system, 'Segoe UI', sans-serif" font-size="68" font-weight="700" fill="white" text-anchor="middle" letter-spacing="1">Thanaweya Amma</text>
  <g transform="translate(1140, 575)">
    <rect x="0" y="0" width="40" height="40" rx="8" fill="rgba(255,255,255,0.15)"/>
    <text x="20" y="29" font-family="sans-serif" font-weight="bold" font-size="24" fill="rgba(255,255,255,0.6)" text-anchor="middle">K</text>
  </g>
</svg>